<svg width="41" height="41" viewBox="0 0 41 41" fill="none" xmlns="http://www.w3.org/2000/svg">
<path d="M6.83332 34.1668C5.89374 34.1668 5.0894 33.8323 4.4203 33.1632C3.75121 32.4941 3.41666 31.6897 3.41666 30.7502V10.2502C3.41666 9.31058 3.75121 8.50624 4.4203 7.83714C5.0894 7.16804 5.89374 6.8335 6.83332 6.8335H34.1667C35.1062 6.8335 35.9106 7.16804 36.5797 7.83714C37.2488 8.50624 37.5833 9.31058 37.5833 10.2502V30.7502C37.5833 31.6897 37.2488 32.4941 36.5797 33.1632C35.9106 33.8323 35.1062 34.1668 34.1667 34.1668H6.83332ZM20.5 22.2085L6.83332 13.6668V30.7502H34.1667V13.6668L20.5 22.2085ZM20.5 18.7918L34.1667 10.2502H6.83332L20.5 18.7918ZM6.83332 13.6668V10.2502V30.7502V13.6668Z" fill="#1D1B20"/>
</svg>
